<svg width="20" height="20" viewBox="0 0 22 22" fill="none" xmlns="http://www.w3.org/2000/svg">
<path d="M12.2546 5.75C12.5309 5.75 12.7548 5.52614 12.7548 5.25C12.7548 4.97386 12.5309 4.75 12.2546 4.75C11.9783 4.75 11.7544 4.97386 11.7544 5.25C11.7544 5.52614 11.9783 5.75 12.2546 5.75Z" fill="#0A0A0A"/>
<path d="M16.2562 9.75C16.5325 9.75 16.7564 9.52614 16.7564 9.25C16.7564 8.97386 16.5325 8.75 16.2562 8.75C15.9799 8.75 15.756 8.97386 15.756 9.25C15.756 9.52614 15.9799 9.75 16.2562 9.75Z" fill="#0A0A0A"/>
<path d="M7.2526 6.75C7.52885 6.75 7.7528 6.52614 7.7528 6.25C7.7528 5.97386 7.52885 5.75 7.2526 5.75C6.97635 5.75 6.7524 5.97386 6.7524 6.25C6.7524 6.52614 6.97635 6.75 7.2526 6.75Z" fill="#0A0A0A"/>
<path d="M5.2518 11.75C5.52805 11.75 5.752 11.5261 5.752 11.25C5.752 10.9739 5.52805 10.75 5.2518 10.75C4.97555 10.75 4.7516 10.9739 4.7516 11.25C4.7516 11.5261 4.97555 11.75 5.2518 11.75Z" fill="#0A0A0A"/>
<path d="M12.2546 5.75C12.5309 5.75 12.7548 5.52614 12.7548 5.25C12.7548 4.97386 12.5309 4.75 12.2546 4.75C11.9783 4.75 11.7544 4.97386 11.7544 5.25C11.7544 5.52614 11.9783 5.75 12.2546 5.75Z" stroke="#414650" stroke-width="1.5" stroke-linecap="round" stroke-linejoin="round"/>
<path d="M16.2562 9.75C16.5325 9.75 16.7564 9.52614 16.7564 9.25C16.7564 8.97386 16.5325 8.75 16.2562 8.75C15.9799 8.75 15.756 8.97386 15.756 9.25C15.756 9.52614 15.9799 9.75 16.2562 9.75Z" stroke="#414650" stroke-width="1.5" stroke-linecap="round" stroke-linejoin="round"/>
<path d="M7.2526 6.75C7.52885 6.75 7.7528 6.52614 7.7528 6.25C7.7528 5.97386 7.52885 5.75 7.2526 5.75C6.97635 5.75 6.7524 5.97386 6.7524 6.25C6.7524 6.52614 6.97635 6.75 7.2526 6.75Z" stroke="#414650" stroke-width="1.5" stroke-linecap="round" stroke-linejoin="round"/>
<path d="M5.2518 11.75C5.52805 11.75 5.752 11.5261 5.752 11.25C5.752 10.9739 5.52805 10.75 5.2518 10.75C4.97555 10.75 4.7516 10.9739 4.7516 11.25C4.7516 11.5261 4.97555 11.75 5.2518 11.75Z" stroke="#414650" stroke-width="1.5" stroke-linecap="round" stroke-linejoin="round"/>
<path d="M10.754 0.75C5.2518 0.75 0.75 5.25 0.75 10.75C0.75 16.25 5.2518 20.75 10.754 20.75C11.6804 20.75 12.4027 20.004 12.4027 19.062C12.4027 18.625 12.2226 18.227 11.9655 17.937C11.6754 17.648 11.5273 17.285 11.5273 16.812C11.5235 16.5919 11.5641 16.3733 11.6466 16.1692C11.7291 15.9651 11.8519 15.7798 12.0076 15.6241C12.1633 15.4685 12.3488 15.3457 12.5529 15.2632C12.7571 15.1808 12.9758 15.1402 13.196 15.144H15.1928C18.245 15.144 20.75 12.641 20.75 9.59C20.723 4.762 16.2172 0.75 10.754 0.75Z" stroke="#414650" stroke-width="1.5" stroke-linecap="round" stroke-linejoin="round"/>
</svg>
