<svg width="20" height="20" viewBox="0 0 20 20" fill="none" xmlns="http://www.w3.org/2000/svg">
<path fill-rule="evenodd" clip-rule="evenodd" d="M7.94194 2.05806C8.18602 2.30214 8.18602 2.69786 7.94194 2.94194L4.00888 6.875H12.5C15.6066 6.875 18.125 9.3934 18.125 12.5C18.125 15.6066 15.6066 18.125 12.5 18.125H10C9.65482 18.125 9.375 17.8452 9.375 17.5C9.375 17.1548 9.65482 16.875 10 16.875H12.5C14.9162 16.875 16.875 14.9162 16.875 12.5C16.875 10.0838 14.9162 8.125 12.5 8.125H4.00888L7.94194 12.0581C8.18602 12.3021 8.18602 12.6979 7.94194 12.9419C7.69786 13.186 7.30214 13.186 7.05806 12.9419L2.05806 7.94194C1.81398 7.69786 1.81398 7.30214 2.05806 7.05806L7.05806 2.05806C7.30214 1.81398 7.69786 1.81398 7.94194 2.05806Z" fill="#414650"/>
</svg>
