<svg width="1008" height="44" viewBox="0 0 1008 44" fill="none" xmlns="http://www.w3.org/2000/svg">
<mask id="path-1-inside-1_10875_10660" fill="white">
<path d="M0 8C0 3.58172 3.58172 0 8 0H1000C1004.42 0 1008 3.58172 1008 8V44H0V8Z"/>
</mask>
<path d="M0 8C0 3.58172 3.58172 0 8 0H1000C1004.42 0 1008 3.58172 1008 8V44H0V8Z" fill="#FAFAFA"/>
<path d="M-1 8C-1 3.02944 3.02944 -1 8 -1H1000C1004.97 -1 1009 3.02944 1009 8H1007C1007 4.13401 1003.87 1 1000 1H8C4.13401 1 1 4.13401 1 8H-1ZM1 8M1008 44H0H1008M-1 44V8C-1 3.02944 3.02944 -1 8 -1V1C4.13401 1 1 4.13401 1 8V44H-1ZM1000 -1C1004.97 -1 1009 3.02944 1009 8V44H1007V8C1007 4.13401 1003.87 1 1000 1V-1Z" fill="#D5D7DA" mask="url(#path-1-inside-1_10875_10660)"/>
<path d="M23.4062 27.625H17.625V16.375H22.9375C23.5639 16.375 24.1771 16.5543 24.7048 16.8917C25.2325 17.2291 25.6526 17.7105 25.9155 18.279C26.1784 18.8475 26.2731 19.4794 26.1884 20.1C26.1037 20.7206 25.8431 21.304 25.4375 21.7812C25.9673 22.205 26.3528 22.7825 26.5408 23.4344C26.7289 24.0862 26.7102 24.7803 26.4875 25.4211C26.2647 26.0619 25.8488 26.6179 25.297 27.0126C24.7452 27.4073 24.0847 27.6213 23.4062 27.625ZM19.5 25.75H23.3937C23.5784 25.75 23.7613 25.7136 23.9319 25.643C24.1025 25.5723 24.2575 25.4687 24.3881 25.3381C24.5187 25.2075 24.6223 25.0525 24.693 24.8819C24.7636 24.7113 24.8 24.5284 24.8 24.3438C24.8 24.1591 24.7636 23.9762 24.693 23.8056C24.6223 23.635 24.5187 23.48 24.3881 23.3494C24.2575 23.2188 24.1025 23.1152 23.9319 23.0445C23.7613 22.9739 23.5784 22.9375 23.3937 22.9375H19.5V25.75ZM19.5 21.0625H22.9375C23.1222 21.0625 23.305 21.0261 23.4756 20.9555C23.6463 20.8848 23.8013 20.7812 23.9319 20.6506C24.0625 20.52 24.166 20.365 24.2367 20.1944C24.3074 20.0238 24.3438 19.8409 24.3438 19.6562C24.3438 19.4716 24.3074 19.2887 24.2367 19.1181C24.166 18.9475 24.0625 18.7925 23.9319 18.6619C23.8013 18.5313 23.6463 18.4277 23.4756 18.357C23.305 18.2864 23.1222 18.25 22.9375 18.25H19.5V21.0625Z" fill="#414650"/>
<path d="M57.625 17.625V16.375H49.5V17.625H52.7125L49.9813 26.375H46.375V27.625H54.5V26.375H51.2875L54.0187 17.625H57.625Z" fill="#414650"/>
<path d="M74.5 28.25H89.5V29.5H74.5V28.25ZM82 26.375C80.8397 26.375 79.7269 25.9141 78.9064 25.0936C78.0859 24.2731 77.625 23.1603 77.625 22V15.125H78.875V22C78.875 22.8288 79.2042 23.6237 79.7903 24.2097C80.3763 24.7958 81.1712 25.125 82 25.125C82.8288 25.125 83.6237 24.7958 84.2097 24.2097C84.7958 23.6237 85.125 22.8288 85.125 22V15.125H86.375V22C86.375 23.1603 85.9141 24.2731 85.0936 25.0936C84.2731 25.9141 83.1603 26.375 82 26.375Z" fill="#414650"/>
<path d="M109 18.25V16H121V18.25" stroke="#414650" stroke-width="1.5" stroke-linecap="round" stroke-linejoin="round"/>
<path d="M109.75 28H114.25" stroke="#414650" stroke-width="1.5" stroke-linecap="round" stroke-linejoin="round"/>
<path d="M115.75 16L112 28" stroke="#414650" stroke-width="1.5" stroke-linecap="round" stroke-linejoin="round"/>
<path d="M117.25 24.25L121 28" stroke="#414650" stroke-width="1.5" stroke-linecap="round" stroke-linejoin="round"/>
<path d="M121 24.25L117.25 28" stroke="#414650" stroke-width="1.5" stroke-linecap="round" stroke-linejoin="round"/>
<path d="M156.399 22.3575L151.408 17.3663C151.174 17.1319 150.856 17.0002 150.524 17.0002C150.193 17.0002 149.875 17.1319 149.64 17.3663L146.291 20.715L143.625 13.25H142.375L139.25 22H140.5L141.124 20.125H144.874L145.376 21.63L140.866 26.14C140.75 26.2561 140.658 26.3939 140.595 26.5456C140.532 26.6973 140.5 26.8599 140.5 27.0241C140.5 27.1883 140.532 27.3508 140.595 27.5025C140.658 27.6542 140.75 27.792 140.866 27.9081L143.707 30.75H149.701L156.399 24.0519C156.51 23.9406 156.598 23.8085 156.659 23.6631C156.719 23.5177 156.75 23.3618 156.75 23.2044C156.75 23.047 156.719 22.8911 156.659 22.7457C156.598 22.6003 156.51 22.4681 156.399 22.3569V22.3575ZM141.541 18.875L142.997 14.5L144.457 18.875H141.541ZM149.184 29.5H144.225L141.75 27.0238L145.695 23.0794L150.65 28.0337L149.184 29.5ZM151.534 27.15L146.579 22.1956L150.524 18.25L155.479 23.2044L151.534 27.15Z" fill="#414650"/>
<path d="M185.5 15.75H194.25V17H185.5V15.75ZM185.5 19.5H191.75V20.75H185.5V19.5ZM185.5 23.25H194.25V24.5H185.5V23.25ZM185.5 27H191.75V28.25H185.5V27ZM181.75 14.5H183V29.5H181.75V14.5Z" fill="#414650"/>
<path d="M208 25L203 20L203.7 19.3L208 23.6L212.3 19.3L213 20L208 25Z" fill="#414650"/>
<path d="M236.375 19.5C237.411 19.5 238.25 18.6605 238.25 17.625C238.25 16.5895 237.411 15.75 236.375 15.75C235.339 15.75 234.5 16.5895 234.5 17.625C234.5 18.6605 235.339 19.5 236.375 19.5Z" fill="#414650"/>
<path d="M236.375 28.25C237.411 28.25 238.25 27.4105 238.25 26.375C238.25 25.3395 237.411 24.5 236.375 24.5C235.339 24.5 234.5 25.3395 234.5 26.375C234.5 27.4105 235.339 28.25 236.375 28.25Z" fill="#414650"/>
<path d="M242 25.75H250.75V27H242V25.75ZM242 17H250.75V18.25H242V17Z" fill="#414650"/>
<path d="M272 25.75H280.75V27H272V25.75ZM272 17H280.75V18.25H272V17ZM267 19.5V14.5H265.75V15.125H264.5V16.375H265.75V19.5H264.5V20.75H268.25V19.5H267ZM268.25 29.5H264.5V27C264.5 26.6685 264.632 26.3505 264.866 26.1161C265.101 25.8817 265.418 25.75 265.75 25.75H267V24.5H264.5V23.25H267C267.332 23.25 267.649 23.3817 267.884 23.6161C268.118 23.8505 268.25 24.1685 268.25 24.5V25.75C268.25 26.0815 268.118 26.3995 267.884 26.6339C267.649 26.8683 267.332 27 267 27H265.75V28.25H268.25V29.5Z" fill="#414650"/>
<path d="M307.698 21.722H311.156V26.622C310.615 26.7993 310.069 26.93 309.518 27.014C308.967 27.098 308.342 27.14 307.642 27.14C306.606 27.14 305.733 26.9347 305.024 26.524C304.315 26.104 303.773 25.5113 303.4 24.746C303.036 23.9713 302.854 23.0567 302.854 22.002C302.854 20.9567 303.059 20.0513 303.47 19.286C303.881 18.5207 304.469 17.928 305.234 17.508C306.009 17.0787 306.942 16.864 308.034 16.864C308.594 16.864 309.121 16.9153 309.616 17.018C310.12 17.1207 310.587 17.2653 311.016 17.452L310.54 18.544C310.185 18.3853 309.784 18.25 309.336 18.138C308.897 18.026 308.44 17.97 307.964 17.97C307.171 17.97 306.489 18.1333 305.92 18.46C305.351 18.7867 304.917 19.2533 304.618 19.86C304.319 20.4573 304.17 21.1713 304.17 22.002C304.17 22.7953 304.296 23.5 304.548 24.116C304.809 24.7227 305.215 25.1987 305.766 25.544C306.317 25.88 307.04 26.048 307.936 26.048C308.235 26.048 308.496 26.0387 308.72 26.02C308.953 25.992 309.163 25.9593 309.35 25.922C309.546 25.8847 309.728 25.8473 309.896 25.81V22.842H307.698V21.722ZM316.876 19.356C317.016 19.356 317.165 19.3653 317.324 19.384C317.492 19.3933 317.636 19.412 317.758 19.44L317.604 20.574C317.482 20.546 317.347 20.5227 317.198 20.504C317.058 20.4853 316.922 20.476 316.792 20.476C316.502 20.476 316.227 20.5367 315.966 20.658C315.704 20.7793 315.471 20.952 315.266 21.176C315.06 21.3907 314.897 21.652 314.776 21.96C314.664 22.268 314.608 22.6133 314.608 22.996V27H313.376V19.496H314.384L314.524 20.868H314.58C314.738 20.588 314.93 20.336 315.154 20.112C315.378 19.8787 315.634 19.6967 315.924 19.566C316.213 19.426 316.53 19.356 316.876 19.356ZM321.727 19.37C322.642 19.37 323.319 19.5707 323.757 19.972C324.196 20.3733 324.415 21.0127 324.415 21.89V27H323.519L323.281 25.936H323.225C323.011 26.2067 322.787 26.4353 322.553 26.622C322.329 26.7993 322.068 26.93 321.769 27.014C321.48 27.098 321.125 27.14 320.705 27.14C320.257 27.14 319.851 27.0607 319.487 26.902C319.133 26.7433 318.853 26.5007 318.647 26.174C318.442 25.838 318.339 25.418 318.339 24.914C318.339 24.1673 318.633 23.5933 319.221 23.192C319.809 22.7813 320.715 22.5573 321.937 22.52L323.211 22.478V22.03C323.211 21.4047 323.076 20.9707 322.805 20.728C322.535 20.4853 322.152 20.364 321.657 20.364C321.265 20.364 320.892 20.4247 320.537 20.546C320.183 20.658 319.851 20.7887 319.543 20.938L319.165 20.014C319.492 19.8367 319.879 19.6873 320.327 19.566C320.775 19.4353 321.242 19.37 321.727 19.37ZM322.091 23.374C321.158 23.4113 320.509 23.5607 320.145 23.822C319.791 24.0833 319.613 24.452 319.613 24.928C319.613 25.348 319.739 25.656 319.991 25.852C320.253 26.048 320.584 26.146 320.985 26.146C321.62 26.146 322.147 25.9733 322.567 25.628C322.987 25.2733 323.197 24.732 323.197 24.004V23.332L322.091 23.374ZM330.303 19.356C331.227 19.356 331.969 19.678 332.529 20.322C333.098 20.966 333.383 21.9367 333.383 23.234C333.383 24.0833 333.252 24.802 332.991 25.39C332.739 25.9687 332.38 26.4073 331.913 26.706C331.456 26.9953 330.914 27.14 330.289 27.14C329.906 27.14 329.566 27.0887 329.267 26.986C328.968 26.8833 328.712 26.7527 328.497 26.594C328.292 26.426 328.114 26.244 327.965 26.048H327.881C327.9 26.2067 327.918 26.4073 327.937 26.65C327.956 26.8927 327.965 27.1027 327.965 27.28V30.36H326.733V19.496H327.741L327.909 20.518H327.965C328.114 20.3033 328.292 20.1073 328.497 19.93C328.712 19.7527 328.964 19.6127 329.253 19.51C329.552 19.4073 329.902 19.356 330.303 19.356ZM330.079 20.392C329.575 20.392 329.169 20.49 328.861 20.686C328.553 20.8727 328.329 21.1573 328.189 21.54C328.049 21.9227 327.974 22.408 327.965 22.996V23.234C327.965 23.85 328.03 24.3727 328.161 24.802C328.292 25.2313 328.511 25.558 328.819 25.782C329.136 26.006 329.566 26.118 330.107 26.118C330.564 26.118 330.938 25.992 331.227 25.74C331.526 25.488 331.745 25.1473 331.885 24.718C332.034 24.2793 332.109 23.78 332.109 23.22C332.109 22.3613 331.941 21.6753 331.605 21.162C331.278 20.6487 330.77 20.392 330.079 20.392ZM336.578 19.482C336.578 19.6593 336.569 19.8413 336.55 20.028C336.541 20.2147 336.527 20.3827 336.508 20.532H336.592C336.751 20.2707 336.952 20.056 337.194 19.888C337.437 19.72 337.708 19.594 338.006 19.51C338.305 19.4167 338.613 19.37 338.93 19.37C339.537 19.37 340.041 19.468 340.442 19.664C340.853 19.8507 341.161 20.1447 341.366 20.546C341.572 20.9473 341.674 21.47 341.674 22.114V27H340.456V22.198C340.456 21.5913 340.321 21.1387 340.05 20.84C339.78 20.5413 339.355 20.392 338.776 20.392C338.216 20.392 337.778 20.4993 337.46 20.714C337.143 20.9193 336.914 21.2273 336.774 21.638C336.644 22.0393 336.578 22.534 336.578 23.122V27H335.346V16.36H336.578V19.482ZM345.233 19.496V27H344.001V19.496H345.233ZM344.631 16.682C344.817 16.682 344.981 16.7473 345.121 16.878C345.27 16.9993 345.345 17.1953 345.345 17.466C345.345 17.7273 345.27 17.9233 345.121 18.054C344.981 18.1847 344.817 18.25 344.631 18.25C344.425 18.25 344.253 18.1847 344.113 18.054C343.973 17.9233 343.903 17.7273 343.903 17.466C343.903 17.1953 343.973 16.9993 344.113 16.878C344.253 16.7473 344.425 16.682 344.631 16.682ZM348.828 21.918C348.828 22.0673 348.819 22.2633 348.8 22.506C348.791 22.7487 348.781 22.9587 348.772 23.136H348.828C348.884 23.0613 348.968 22.954 349.08 22.814C349.192 22.674 349.304 22.534 349.416 22.394C349.537 22.2447 349.64 22.1233 349.724 22.03L352.118 19.496H353.56L350.522 22.702L353.77 27H352.286L349.682 23.5L348.828 24.242V27H347.61V16.36H348.828V21.918Z" fill="#414650"/>
<path d="M364 25L359 20L359.7 19.3L364 23.6L368.3 19.3L369 20L364 25Z" fill="#414650"/>
<path d="M392.97 27H391.766V20.014C391.766 19.7433 391.766 19.5147 391.766 19.328C391.775 19.1413 391.785 18.9687 391.794 18.81C391.803 18.642 391.813 18.4693 391.822 18.292C391.673 18.4413 391.537 18.5673 391.416 18.67C391.295 18.7727 391.141 18.9033 390.954 19.062L389.89 19.93L389.246 19.104L391.948 17.004H392.97V27ZM403.74 24.732H402.284V27H401.094V24.732H396.306V23.682L401.01 16.948H402.284V23.626H403.74V24.732ZM401.094 20.476C401.094 20.2333 401.094 20.014 401.094 19.818C401.103 19.6127 401.112 19.4213 401.122 19.244C401.131 19.0667 401.136 18.8987 401.136 18.74C401.145 18.572 401.154 18.4133 401.164 18.264H401.108C401.033 18.4413 400.94 18.6327 400.828 18.838C400.716 19.0433 400.608 19.216 400.506 19.356L397.51 23.626H401.094V20.476Z" fill="#414650"/>
<path d="M415 25L410 20L410.7 19.3L415 23.6L419.3 19.3L420 20L415 25Z" fill="#414650"/>
<rect x="443" y="12" width="20" height="20" rx="4" fill="#181D26"/>
<g opacity="0.7" style="mix-blend-mode:multiply">
<rect x="443.5" y="12.5" width="19" height="19" rx="3.5" stroke="#414650"/>
</g>
<path d="M473 25L468 20L468.7 19.3L473 23.6L477.3 19.3L478 20L473 25Z" fill="#414650"/>
<path d="M512.505 17C512.781 17 513.005 16.7761 513.005 16.5C513.005 16.2239 512.781 16 512.505 16C512.228 16 512.004 16.2239 512.004 16.5C512.004 16.7761 512.228 17 512.505 17Z" fill="#0A0A0A"/>
<path d="M516.506 21C516.782 21 517.006 20.7761 517.006 20.5C517.006 20.2239 516.782 20 516.506 20C516.23 20 516.006 20.2239 516.006 20.5C516.006 20.7761 516.23 21 516.506 21Z" fill="#0A0A0A"/>
<path d="M507.503 18C507.779 18 508.003 17.7761 508.003 17.5C508.003 17.2239 507.779 17 507.503 17C507.226 17 507.002 17.2239 507.002 17.5C507.002 17.7761 507.226 18 507.503 18Z" fill="#0A0A0A"/>
<path d="M505.502 23C505.778 23 506.002 22.7761 506.002 22.5C506.002 22.2239 505.778 22 505.502 22C505.226 22 505.002 22.2239 505.002 22.5C505.002 22.7761 505.226 23 505.502 23Z" fill="#0A0A0A"/>
<path d="M512.505 17C512.781 17 513.005 16.7761 513.005 16.5C513.005 16.2239 512.781 16 512.505 16C512.228 16 512.004 16.2239 512.004 16.5C512.004 16.7761 512.228 17 512.505 17Z" stroke="#414650" stroke-width="1.5" stroke-linecap="round" stroke-linejoin="round"/>
<path d="M516.506 21C516.782 21 517.006 20.7761 517.006 20.5C517.006 20.2239 516.782 20 516.506 20C516.23 20 516.006 20.2239 516.006 20.5C516.006 20.7761 516.23 21 516.506 21Z" stroke="#414650" stroke-width="1.5" stroke-linecap="round" stroke-linejoin="round"/>
<path d="M507.503 18C507.779 18 508.003 17.7761 508.003 17.5C508.003 17.2239 507.779 17 507.503 17C507.226 17 507.002 17.2239 507.002 17.5C507.002 17.7761 507.226 18 507.503 18Z" stroke="#414650" stroke-width="1.5" stroke-linecap="round" stroke-linejoin="round"/>
<path d="M505.502 23C505.778 23 506.002 22.7761 506.002 22.5C506.002 22.2239 505.778 22 505.502 22C505.226 22 505.002 22.2239 505.002 22.5C505.002 22.7761 505.226 23 505.502 23Z" stroke="#414650" stroke-width="1.5" stroke-linecap="round" stroke-linejoin="round"/>
<path d="M511.004 12C505.502 12 501 16.5 501 22C501 27.5 505.502 32 511.004 32C511.93 32 512.653 31.254 512.653 30.312C512.653 29.875 512.473 29.477 512.215 29.187C511.925 28.898 511.777 28.535 511.777 28.062C511.774 27.8419 511.814 27.6233 511.897 27.4192C511.979 27.2151 512.102 27.0298 512.258 26.8741C512.413 26.7185 512.599 26.5957 512.803 26.5132C513.007 26.4308 513.226 26.3902 513.446 26.394H515.443C518.495 26.394 521 23.891 521 20.84C520.973 16.012 516.467 12 511.004 12Z" stroke="#414650" stroke-width="1.5" stroke-linecap="round" stroke-linejoin="round"/>
<path d="M531 25L526 20L526.7 19.3L531 23.6L535.3 19.3L536 20L531 25Z" fill="#414650"/>
<path d="M573.281 16.225C572.933 15.8754 572.519 15.598 572.063 15.4088C571.607 15.2195 571.119 15.1221 570.625 15.1221C570.131 15.1221 569.643 15.2195 569.187 15.4088C568.731 15.598 568.317 15.8754 567.969 16.225L568.856 17.1125C569.089 16.8798 569.365 16.6953 569.669 16.5693C569.973 16.4434 570.299 16.3786 570.628 16.3786C570.957 16.3786 571.283 16.4434 571.587 16.5693C571.891 16.6953 572.167 16.8798 572.4 17.1125C572.633 17.3452 572.817 17.6215 572.943 17.9255C573.069 18.2295 573.134 18.5553 573.134 18.8844C573.134 19.2135 573.069 19.5393 572.943 19.8433C572.817 20.1474 572.633 20.4236 572.4 20.6563L567.4 25.6563C566.931 26.1262 566.294 26.3905 565.63 26.3911C564.966 26.3917 564.329 26.1285 563.859 25.6594C563.389 25.1903 563.125 24.5537 563.125 23.8897C563.124 23.2257 563.387 22.5887 563.856 22.1188L564.738 21.2313L563.856 20.3438L562.969 21.2313C562.619 21.5797 562.342 21.9936 562.153 22.4495C561.963 22.9053 561.866 23.394 561.866 23.8875C561.866 24.3811 561.963 24.8698 562.153 25.3256C562.342 25.7814 562.619 26.1954 562.969 26.5438C563.676 27.2419 564.631 27.6308 565.625 27.625C566.12 27.6271 566.611 27.5309 567.069 27.3421C567.528 27.1533 567.944 26.8756 568.294 26.525L573.294 21.525C573.994 20.8202 574.387 19.8662 574.384 18.8724C574.382 17.8787 573.985 16.9265 573.281 16.225Z" fill="#414650"/>
<path d="M557.619 27.5125C557.385 27.2802 557.2 27.0041 557.074 26.7C556.947 26.396 556.882 26.0699 556.882 25.7407C556.882 25.4114 556.947 25.0853 557.074 24.7813C557.2 24.4772 557.385 24.2011 557.619 23.9688L562.619 18.9688C562.851 18.7354 563.127 18.5502 563.431 18.4238C563.735 18.2975 564.061 18.2324 564.391 18.2324C564.72 18.2324 565.046 18.2975 565.35 18.4238C565.654 18.5502 565.93 18.7354 566.163 18.9688C566.394 19.2029 566.577 19.4812 566.699 19.7872C566.822 20.0931 566.882 20.4206 566.875 20.75C566.877 21.0805 566.813 21.4081 566.688 21.7139C566.562 22.0196 566.377 22.2974 566.144 22.5313L564.819 23.875L565.706 24.7625L567.031 23.4375C567.737 22.7322 568.133 21.7756 568.133 20.7782C568.133 19.7807 567.737 18.8241 567.031 18.1188C566.326 17.4135 565.369 17.0172 564.372 17.0172C563.374 17.0172 562.418 17.4135 561.713 18.1188L556.713 23.1188C556.362 23.4673 556.084 23.8816 555.894 24.338C555.704 24.7944 555.606 25.2839 555.606 25.7782C555.606 26.2725 555.704 26.7619 555.894 27.2183C556.084 27.6747 556.362 28.089 556.713 28.4375C557.424 29.1303 558.382 29.5124 559.375 29.5C560.377 29.501 561.339 29.1055 562.05 28.4L561.163 27.5125C560.93 27.7459 560.654 27.9311 560.35 28.0575C560.046 28.1838 559.72 28.2489 559.391 28.2489C559.061 28.2489 558.735 28.1838 558.431 28.0575C558.127 27.9311 557.851 27.7459 557.619 27.5125Z" fill="#414650"/>
<path d="M596.875 20.75C597.246 20.75 597.608 20.64 597.917 20.434C598.225 20.228 598.465 19.9351 598.607 19.5925C598.749 19.2499 598.786 18.8729 598.714 18.5092C598.642 18.1455 598.463 17.8114 598.201 17.5492C597.939 17.287 597.605 17.1084 597.241 17.036C596.877 16.9637 596.5 17.0008 596.157 17.1427C595.815 17.2846 595.522 17.525 595.316 17.8333C595.11 18.1416 595 18.5042 595 18.875C595 19.3723 595.198 19.8492 595.549 20.2008C595.901 20.5525 596.378 20.75 596.875 20.75ZM596.875 18.25C596.999 18.25 597.119 18.2867 597.222 18.3553C597.325 18.424 597.405 18.5216 597.452 18.6358C597.5 18.75 597.512 18.8757 597.488 18.9969C597.464 19.1182 597.404 19.2295 597.317 19.3169C597.23 19.4043 597.118 19.4639 596.997 19.488C596.876 19.5121 596.75 19.4997 596.636 19.4524C596.522 19.4051 596.424 19.325 596.355 19.2222C596.287 19.1195 596.25 18.9986 596.25 18.875C596.25 18.7092 596.316 18.5503 596.433 18.4331C596.55 18.3158 596.709 18.25 596.875 18.25Z" fill="#414650"/>
<path d="M601.25 14.5H588.75C588.418 14.5 588.101 14.6317 587.866 14.8661C587.632 15.1005 587.5 15.4185 587.5 15.75V28.25C587.5 28.5815 587.632 28.8995 587.866 29.1339C588.101 29.3683 588.418 29.5 588.75 29.5H601.25C601.582 29.5 601.899 29.3683 602.134 29.1339C602.368 28.8995 602.5 28.5815 602.5 28.25V15.75C602.5 15.4185 602.368 15.1005 602.134 14.8661C601.899 14.6317 601.582 14.5 601.25 14.5ZM601.25 28.25H588.75V24.5L591.875 21.375L595.369 24.8687C595.603 25.1016 595.92 25.2322 596.25 25.2322C596.58 25.2322 596.897 25.1016 597.131 24.8687L598.125 23.875L601.25 27V28.25ZM601.25 25.2312L599.006 22.9875C598.772 22.7547 598.455 22.624 598.125 22.624C597.795 22.624 597.478 22.7547 597.244 22.9875L596.25 23.9812L592.756 20.4875C592.522 20.2547 592.205 20.124 591.875 20.124C591.545 20.124 591.228 20.2547 590.994 20.4875L588.75 22.7312V15.75H601.25V25.2312Z" fill="#414650"/>
<path d="M624.125 20.75L628.058 16.8169C628.452 16.4232 629.125 16.7021 629.125 17.2589V26.7411C629.125 27.2979 628.452 27.5768 628.058 27.1831L624.125 23.25M614.75 27.625H622.25C623.286 27.625 624.125 26.7855 624.125 25.75V18.25C624.125 17.2145 623.286 16.375 622.25 16.375H614.75C613.714 16.375 612.875 17.2145 612.875 18.25V25.75C612.875 26.7855 613.714 27.625 614.75 27.625Z" stroke="#414650" stroke-width="1.5" stroke-linecap="round" stroke-linejoin="round"/>
<path d="M656.375 22L652 26.375L651.119 25.4937L654.606 22L651.119 18.5062L652 17.625L656.375 22ZM637.625 22L642 17.625L642.881 18.5062L639.394 22L642.881 25.4937L642 26.375L637.625 22ZM644.762 27.9275L648.025 15.75L649.233 16.0731L645.97 28.25L644.762 27.9275Z" fill="#414650"/>
<path fill-rule="evenodd" clip-rule="evenodd" d="M676.942 14.0581C677.186 14.3021 677.186 14.6979 676.942 14.9419L673.009 18.875H681.5C684.607 18.875 687.125 21.3934 687.125 24.5C687.125 27.6066 684.607 30.125 681.5 30.125H679C678.655 30.125 678.375 29.8452 678.375 29.5C678.375 29.1548 678.655 28.875 679 28.875H681.5C683.916 28.875 685.875 26.9162 685.875 24.5C685.875 22.0838 683.916 20.125 681.5 20.125H673.009L676.942 24.0581C677.186 24.3021 677.186 24.6979 676.942 24.9419C676.698 25.186 676.302 25.186 676.058 24.9419L671.058 19.9419C670.814 19.6979 670.814 19.3021 671.058 19.0581L676.058 14.0581C676.302 13.814 676.698 13.814 676.942 14.0581Z" fill="#414650"/>
<path fill-rule="evenodd" clip-rule="evenodd" d="M711.058 14.0581C711.302 13.814 711.698 13.814 711.942 14.0581L716.942 19.0581C717.186 19.3021 717.186 19.6979 716.942 19.9419L711.942 24.9419C711.698 25.186 711.302 25.186 711.058 24.9419C710.814 24.6979 710.814 24.3021 711.058 24.0581L714.991 20.125H706.5C704.084 20.125 702.125 22.0838 702.125 24.5C702.125 26.9162 704.084 28.875 706.5 28.875H709C709.345 28.875 709.625 29.1548 709.625 29.5C709.625 29.8452 709.345 30.125 709 30.125H706.5C703.393 30.125 700.875 27.6066 700.875 24.5C700.875 21.3934 703.393 18.875 706.5 18.875H714.991L711.058 14.9419C710.814 14.6979 710.814 14.3021 711.058 14.0581Z" fill="#414650"/>
</svg>
